<svg xmlns="http://www.w3.org/2000/svg" style="display: none;">
  
  <symbol id="icon-sun" viewBox="0 0 24 24" fill="none" stroke="currentColor" stroke-width="2" stroke-linecap="round" stroke-linejoin="round">
    <circle cx="12" cy="12" r="5"></circle>
    <line x1="12" y1="1" x2="12" y2="3"></line>
    <line x1="12" y1="21" x2="12" y2="23"></line>
    <line x1="4.22" y1="4.22" x2="5.64" y2="5.64"></line>
    <line x1="18.36" y1="18.36" x2="19.78" y2="19.78"></line>
    <line x1="1" y1="12" x2="3" y2="12"></line>
    <line x1="21" y1="12" x2="23" y2="12"></line>
    <line x1="4.22" y1="19.78" x2="5.64" y2="18.36"></line>
    <line x1="18.36" y1="5.64" x2="19.78" y2="4.22"></line>
  </symbol>

  <symbol id="icon-moon" viewBox="0 0 24 24" fill="none" stroke="currentColor" stroke-width="2" stroke-linecap="round" stroke-linejoin="round">
    <path d="M21 12.79A9 9 0 1 1 11.21 3 7 7 0 0 0 21 12.79z"></path>
  </symbol>

  <symbol id="icon-book" viewBox="0 0 24 24" fill="none" stroke="currentColor" stroke-width="2" stroke-linecap="round" stroke-linejoin="round">
    <path d="M14 2H6a2 2 0 0 0-2 2v16a2 2 0 0 0 2 2h12a2 2 0 0 0 2-2V8z"></path>
    <polyline points="14 2 14 8 20 8"></polyline>
    <line x1="16" y1="13" x2="8" y2="13"></line>
    <line x1="16" y1="17" x2="8" y2="17"></line>
    <line x1="10" y1="9" x2="8" y2="9"></line>
  </symbol>

  <symbol id="icon-library" viewBox="0 0 24 24" fill="none" stroke="currentColor" stroke-width="2" stroke-linecap="round" stroke-linejoin="round">
    <path d="M4 19.5A2.5 2.5 0 0 1 6.5 17H20"></path>
    <path d="M6.5 2H20v20H6.5A2.5 2.5 0 0 1 4 19.5v-15A2.5 2.5 0 0 1 6.5 2z"></path>
  </symbol>

  <symbol id="icon-chart" viewBox="0 0 24 24" fill="none" stroke="currentColor" stroke-width="2" stroke-linecap="round" stroke-linejoin="round">
    <line x1="18" y1="20" x2="18" y2="10"></line>
    <line x1="12" y1="20" x2="12" y2="4"></line>
    <line x1="6" y1="20" x2="6" y2="14"></line>
  </symbol>

  <symbol id="icon-login" viewBox="0 0 24 24" fill="none" stroke="currentColor" stroke-width="2" stroke-linecap="round" stroke-linejoin="round">
    <path d="M15 3h4a2 2 0 0 1 2 2v14a2 2 0 0 1-2 2h-4"></path>
    <polyline points="10 17 15 12 10 7"></polyline>
    <line x1="15" y1="12" x2="3" y2="12"></line>
  </symbol>

  <symbol id="icon-play" viewBox="0 0 24 24" fill="none" stroke="currentColor" stroke-width="2" stroke-linecap="round" stroke-linejoin="round">
    <polygon points="5 3 19 12 5 21 5 3"></polygon>
  </symbol>

  <symbol id="icon-user" viewBox="0 0 24 24" fill="none" stroke="currentColor" stroke-width="2" stroke-linecap="round" stroke-linejoin="round">
    <path d="M20 21v-2a4 4 0 0 0-4-4H8a4 4 0 0 0-4 4v2"></path>
    <circle cx="12" cy="7" r="4"></circle>
  </symbol>

  <symbol id="icon-play-circle" viewBox="0 0 24 24" fill="none" stroke="currentColor" stroke-width="2" stroke-linecap="round" stroke-linejoin="round">
    <circle cx="12" cy="12" r="10"></circle>
    <polygon points="10 8 16 12 10 16 10 8"></polygon>
  </symbol>

  <symbol id="icon-medal" viewBox="0 0 24 24" fill="none" stroke="currentColor" stroke-width="2" stroke-linecap="round" stroke-linejoin="round">
    <circle cx="12" cy="8" r="7"></circle>
    <polyline points="8.21 13.89 7 23 12 20 17 23 15.79 13.88"></polyline>
  </symbol>

  <symbol id="icon-discord" viewBox="0 0 24 24" fill="none" stroke="none">
    <path d="M18.942 5.556a16.299 16.299 0 0 0-4.126-1.297c-.178.321-.385.754-.529 1.097a15.176 15.176 0 0 0-4.573 0 2.458 2.458 0 0 0-.532-1.097 16.236 16.236 0 0 0-4.131 1.297 16.115 16.115 0 0 0-2.486 11.237 16.262 16.262 0 0 0 4.975 2.506 11.91 11.91 0 0 0 1.085-1.748 11.758 11.758 0 0 1-1.706-.822.427.427 0 0 1 .157-.798c.112.052.225.109.336.166a15.012 15.012 0 0 0 9.176 0c.111-.057.225-.114.337-.166a.428.428 0 0 1 .159.798 11.71 11.71 0 0 1-1.711.822c.319.64.686 1.233 1.088 1.748a16.28 16.28 0 0 0 4.966-2.506c.725-3.832-.08-8.248-2.482-11.237ZM8.688 14.868c-1.03 0-1.875-.938-1.875-2.086 0-1.148.831-2.086 1.875-2.086 1.056 0 1.902.938 1.875 2.086 0 1.148-.819 2.086-1.875 2.086Zm6.625 0c-1.03 0-1.875-.938-1.875-2.086 0-1.148.831-2.086 1.875-2.086 1.056 0 1.902.938 1.875 2.086 0 1.148-.819 2.086-1.875 2.086Z" fill="currentColor" />
  </symbol>

  <symbol id="icon-telegram" viewBox="0 0 24 24" fill="none">
    <path fill-rule="evenodd" clip-rule="evenodd" d="M23.1117 4.49449C23.4296 2.94472 21.9074 1.65683 20.4317 2.227L2.3425 9.21601C0.694517 9.85273 0.621087 12.1572 2.22518 12.8975L6.1645 14.7157L8.03849 21.2746C8.13583 21.6153 8.40618 21.8791 8.74917 21.968C9.09216 22.0568 9.45658 21.9576 9.70712 21.707L12.5938 18.8203L16.6375 21.8531C17.8113 22.7334 19.5019 22.0922 19.7967 20.6549L23.1117 4.49449ZM3.0633 11.0816L21.1525 4.0926L17.8375 20.2531L13.1 16.6999C12.7019 16.4013 12.1448 16.4409 11.7929 16.7928L10.5565 18.0292L10.928 15.9861L18.2071 8.70703C18.5614 8.35278 18.5988 7.79106 18.2947 7.39293C17.9906 6.99479 17.4389 6.88312 17.0039 7.13168L6.95124 12.876L3.0633 11.0816ZM8.17695 14.4791L8.78333 16.6015L9.01614 15.321C9.05253 15.1209 9.14908 14.9366 9.29291 14.7928L11.5128 12.573L8.17695 14.4791Z" fill="currentColor"></path>
  </symbol>
</svg>